<?xml version="1.0" encoding="UTF-8" standalone="no"?>
<!DOCTYPE svg PUBLIC "-//W3C//DTD SVG 1.1//EN" "http://www.w3.org/Graphics/SVG/1.1/DTD/svg11.dtd">
<svg version="1.1" xmlns="http://www.w3.org/2000/svg" xmlns:xlink="http://www.w3.org/1999/xlink" preserveAspectRatio="xMidYMid meet" viewBox="0 0 640 640" width="640" height="640"><defs><path d="M470.62 228.54C470.62 244.06 457.66 256.66 441.71 256.66C425.76 256.66 412.8 244.06 412.8 228.54C412.8 213.01 425.76 200.41 441.71 200.41C457.66 200.41 470.62 213.01 470.62 228.54Z" id="fvgbCu6dh"></path><path d="M282.97 235.11C282.97 250.63 270.02 263.23 254.06 263.23C238.11 263.23 225.16 250.63 225.16 235.11C225.16 219.58 238.11 206.98 254.06 206.98C270.02 206.98 282.97 219.58 282.97 235.11Z" id="c1ONcsZSnO"></path><path d="M269.69 234.59C269.69 243.21 262.69 250.21 254.06 250.21C245.44 250.21 238.44 243.21 238.44 234.59C238.44 225.96 245.44 218.96 254.06 218.96C262.69 218.96 269.69 225.96 269.69 234.59Z" id="cINKcsRA"></path><path d="M454.06 395.62C454.06 459.44 406.45 511.25 347.81 511.25C289.17 511.25 241.56 459.44 241.56 395.62C241.56 331.81 289.17 280 347.81 280C406.45 280 454.06 331.81 454.06 395.62Z" id="a2ipeWeGlG"></path><path d="M425.94 376.87C425.94 430.34 390.93 473.75 347.81 473.75C304.69 473.75 269.69 430.34 269.69 376.87C269.69 323.41 304.69 280 347.81 280C390.93 280 425.94 323.41 425.94 376.87Z" id="a2nsSgje7v"></path><path d="M457.19 228.54C457.19 237.16 450.19 244.16 441.56 244.16C432.94 244.16 425.94 237.16 425.94 228.54C425.94 219.91 432.94 212.91 441.56 212.91C450.19 212.91 457.19 219.91 457.19 228.54Z" id="bOpVT3R28"></path><path d="M441.56 250.31C441.56 300.33 399.55 340.94 347.81 340.94C296.07 340.94 254.06 300.33 254.06 250.31C254.06 200.3 296.07 159.69 347.81 159.69C399.55 159.69 441.56 200.3 441.56 250.31Z" id="aaOjCKLvw"></path><path d="M285.57 252.57C278.35 236.16 285.81 216.96 302.23 209.74C318.64 202.51 337.83 209.98 345.06 226.4C352.28 242.81 344.82 262.01 328.41 269.23C311.99 276.46 292.8 268.99 285.57 252.57Z" id="b2pwHZ9drT"></path><path d="M347.86 241.15C346.88 223.24 360.62 207.9 378.53 206.92C396.44 205.94 411.77 219.69 412.75 237.6C413.74 255.51 399.99 270.85 382.09 271.83C364.18 272.81 348.84 259.06 347.86 241.15Z" id="d29bmZSHx4"></path><path d="M418.91 286.25C418.91 312.12 387.05 333.12 347.81 333.12C308.57 333.12 276.72 312.12 276.72 286.25C276.72 260.38 308.57 239.37 347.81 239.37C387.05 239.37 418.91 260.38 418.91 286.25Z" id="ccZoCU59p"></path><path d="M320 239.37C320 245.36 317.55 250.21 314.53 250.21C311.51 250.21 309.06 245.36 309.06 239.37C309.06 233.39 311.51 228.54 314.53 228.54C317.55 228.54 320 233.39 320 239.37Z" id="aFZePfkv7"></path><path d="M385.78 239.47C385.78 245.46 383.33 250.31 380.31 250.31C377.29 250.31 374.84 245.46 374.84 239.47C374.84 233.49 377.29 228.64 380.31 228.64C383.33 228.64 385.78 233.49 385.78 239.47Z" id="b1e2zwpxef"></path><path d="M357.19 271.99C357.19 274.58 352.99 276.68 347.81 276.68C342.64 276.68 338.44 274.58 338.44 271.99C338.44 269.4 342.64 267.3 347.81 267.3C352.99 267.3 357.19 269.4 357.19 271.99Z" id="i1FxCHc5Ry"></path><path d="M332.82 309.1C332.97 303.31 339.81 298.78 348.09 299C356.37 299.22 362.96 304.1 362.81 309.89C362.65 315.68 355.81 320.21 347.54 319.99C339.26 319.77 332.66 314.89 332.82 309.1Z" id="k8UZHst3T"></path><path d="M516.05 278.09C521.72 283.93 508.24 306.23 485.97 327.86C463.7 349.48 441.01 362.3 435.34 356.46C429.67 350.62 443.15 328.32 465.42 306.7C487.69 285.07 510.38 272.25 516.05 278.09Z" id="a3drKlr7bL"></path><path d="M259.42 385.54C252.97 390.5 232.37 374.54 213.46 349.92C194.55 325.3 184.43 301.29 190.89 296.33C197.34 291.37 217.94 307.33 236.85 331.95C255.76 356.57 265.88 380.59 259.42 385.54Z" id="a5M9MGtrcA"></path><path d="M446.31 454.99C436.4 454.52 428.64 448.2 428.98 440.88C429.32 433.56 437.64 427.99 447.55 428.45C457.46 428.92 465.22 435.24 464.88 442.56C464.53 449.88 456.21 455.45 446.31 454.99Z" id="cpc5ImpK1"></path><path d="M449.49 427.56C444.97 436.39 446.59 446.27 453.11 449.61C459.63 452.96 468.6 448.51 473.13 439.68C477.66 430.86 476.03 420.98 469.51 417.63C462.99 414.29 454.02 418.74 449.49 427.56Z" id="a45y75x2Ik"></path><path d="M475.61 433.08C469.75 441.08 460.19 444.06 454.28 439.73C448.36 435.4 448.31 425.39 454.17 417.39C460.03 409.39 469.59 406.4 475.5 410.73C481.42 415.06 481.46 425.07 475.61 433.08Z" id="dORKs9DiV"></path><path d="M487.81 411.7C485.6 421.37 478.01 427.9 470.86 426.26C463.72 424.63 459.71 415.45 461.92 405.79C464.13 396.12 471.72 389.6 478.87 391.23C486.02 392.86 490.02 402.04 487.81 411.7Z" id="f2wcGTRjsL"></path><path d="M491.6 404.99C486.82 413.67 477.72 417.85 471.3 414.32C464.88 410.78 463.55 400.86 468.34 392.17C473.12 383.48 482.22 379.3 488.64 382.84C495.06 386.38 496.39 396.3 491.6 404.99Z" id="aCUaXZMwU"></path><path d="M480.62 421.68C479.84 431.56 473.27 439.12 465.97 438.55C458.66 437.97 453.36 429.48 454.14 419.59C454.92 409.7 461.48 402.14 468.79 402.72C476.1 403.3 481.4 411.79 480.62 421.68Z" id="aIPvPvOFn"></path><path d="M502.11 390.8C498.86 400.17 490.6 405.83 483.67 403.43C476.75 401.03 473.76 391.47 477.01 382.1C480.25 372.73 488.51 367.07 495.44 369.47C502.36 371.87 505.35 381.42 502.11 390.8Z" id="cNqwYOjwU"></path><path d="M507.72 369.43C507.03 379.33 500.52 386.94 493.21 386.42C485.9 385.91 480.53 377.46 481.23 367.57C481.92 357.67 488.43 350.06 495.74 350.57C503.05 351.09 508.42 359.54 507.72 369.43Z" id="aXNUEj6zA"></path><path d="M296.71 456.5C301.76 459.68 303.27 466.35 300.09 471.39C293.24 482.26 278.46 505.71 271.62 516.57C268.44 521.62 261.77 523.13 256.73 519.95C254.9 518.8 258.55 521.1 256.73 519.95C251.68 516.77 250.17 510.1 253.35 505.06C260.19 494.19 274.97 470.74 281.82 459.88C285 454.83 291.67 453.32 296.71 456.5C298.54 457.65 294.88 455.35 296.71 456.5Z" id="b5tQIu5bE"></path><path d="M400.73 459.8C405.94 456.91 412.52 458.79 415.41 464.01C421.63 475.24 435.07 499.49 441.3 510.72C444.19 515.93 442.3 522.51 437.09 525.4C435.2 526.45 438.98 524.35 437.09 525.4C431.87 528.29 425.3 526.4 422.41 521.19C416.18 509.96 402.74 485.71 396.52 474.48C393.63 469.26 395.51 462.69 400.73 459.8C402.62 458.75 398.84 460.85 400.73 459.8Z" id="cybUg8Xh"></path><path d="M433.53 507.93C438 507.96 441.6 511.62 441.56 516.09C441.49 525.72 441.32 546.51 441.25 556.14C441.21 560.61 437.56 564.21 433.09 564.17C430.39 564.15 430.39 564.15 427.69 564.13C423.21 564.1 419.62 560.44 419.65 555.97C419.73 546.34 419.89 525.55 419.97 515.92C420 511.45 423.65 507.85 428.13 507.88C430.83 507.9 430.83 507.9 433.53 507.93Z" id="a1RfbCBZi"></path><path d="M261.65 507.93C266.12 507.96 269.72 511.62 269.69 516.09C269.61 525.72 269.45 546.51 269.37 556.14C269.34 560.61 265.68 564.21 261.21 564.17C258.51 564.15 258.51 564.15 255.81 564.13C251.34 564.1 247.74 560.44 247.78 555.97C247.85 546.34 248.01 525.55 248.09 515.92C248.13 511.45 251.78 507.85 256.25 507.88C258.95 507.9 258.95 507.9 261.65 507.93Z" id="alqUf9rUa"></path><path d="M191.6 263.85L192.71 264.17L193.79 264.63L194.83 265.22L195.82 265.92L196.75 266.74L197.62 267.66L198.41 268.69L199.12 269.8L199.74 271L200.26 272.28L200.68 273.63L200.98 275.05L201.16 276.48L201.21 277.9L201.13 279.28L201.13 279.33L201.26 279.52L201.61 280.06L201.92 280.62L202.2 281.2L202.45 281.79L202.67 282.4L202.85 283.02L203.01 283.64L203.12 284.28L203.2 284.93L203.25 285.58L203.26 286.24L203.23 286.9L203.16 287.56L203.05 288.23L202.91 288.89L202.72 289.56L193.36 319.48L193.13 320.13L192.87 320.76L192.58 321.36L192.26 321.95L191.91 322.51L191.53 323.04L191.12 323.55L190.68 324.04L190.22 324.5L189.74 324.93L189.24 325.33L188.71 325.7L188.17 326.05L187.61 326.36L187.03 326.64L186.44 326.89L185.83 327.11L185.22 327.3L184.59 327.45L183.95 327.56L183.3 327.64L183.16 327.65L182.63 328.02L181.37 328.71L180.02 329.29L178.58 329.76L177.07 330.11L175.54 330.32L174.03 330.38L172.56 330.31L171.14 330.1L169.78 329.77L168.49 329.32L167.28 328.76L166.17 328.09L165.17 327.31L164.28 326.45L163.52 325.49L162.9 324.45L162.44 323.33L162.13 322.15L162 320.93L162.05 319.72L162.26 318.53L162.64 317.36L163.16 316.24L163.83 315.17L164.64 314.15L165.57 313.2L166.61 312.32L167.77 311.54L169.03 310.85L170.38 310.26L171.81 309.79L171.83 309.79L180.35 282.56L180.58 281.91L180.59 281.87L180.4 281.41L179.99 280.06L179.68 278.64L179.5 277.21L179.45 275.8L179.53 274.42L179.72 273.08L180.02 271.79L180.43 270.57L180.95 269.41L181.56 268.33L182.26 267.34L183.05 266.45L183.92 265.66L184.87 264.99L185.89 264.44L186.97 264.02L188.12 263.75L189.29 263.63L190.45 263.67L191.6 263.85Z" id="b2UmkICeTs"></path></defs><g><g><g><use xlink:href="#fvgbCu6dh" opacity="1" fill="#6a3d2d" fill-opacity="1"></use></g><g><use xlink:href="#c1ONcsZSnO" opacity="1" fill="#6a3d2d" fill-opacity="1"></use></g><g><use xlink:href="#cINKcsRA" opacity="1" fill="#e3ddae" fill-opacity="1"></use></g><g><use xlink:href="#a2ipeWeGlG" opacity="1" fill="#6a3d2d" fill-opacity="1"></use></g><g><use xlink:href="#a2nsSgje7v" opacity="1" fill="#e3ddae" fill-opacity="1"></use></g><g><use xlink:href="#bOpVT3R28" opacity="1" fill="#e3ddae" fill-opacity="1"></use></g><g><use xlink:href="#aaOjCKLvw" opacity="1" fill="#6a3d2d" fill-opacity="1"></use><g><use xlink:href="#aaOjCKLvw" opacity="1" fill-opacity="0" stroke="#000000" stroke-width="1" stroke-opacity="1"></use></g></g><g><use xlink:href="#b2pwHZ9drT" opacity="1" fill="#e3ddae" fill-opacity="1"></use></g><g><use xlink:href="#d29bmZSHx4" opacity="1" fill="#e3ddae" fill-opacity="1"></use></g><g><use xlink:href="#ccZoCU59p" opacity="1" fill="#e3ddae" fill-opacity="1"></use></g><g><use xlink:href="#aFZePfkv7" opacity="1" fill="#070706" fill-opacity="1"></use></g><g><use xlink:href="#b1e2zwpxef" opacity="1" fill="#070706" fill-opacity="1"></use></g><g><use xlink:href="#i1FxCHc5Ry" opacity="1" fill="#070706" fill-opacity="1"></use></g><g><use xlink:href="#k8UZHst3T" opacity="1" fill="#070706" fill-opacity="1"></use></g><g><use xlink:href="#a3drKlr7bL" opacity="1" fill="#6a3d2d" fill-opacity="1"></use></g><g><use xlink:href="#a5M9MGtrcA" opacity="1" fill="#6a3d2d" fill-opacity="1"></use></g><g><use xlink:href="#cpc5ImpK1" opacity="1" fill="#6a3d2d" fill-opacity="1"></use></g><g><use xlink:href="#a45y75x2Ik" opacity="1" fill="#6a3d2d" fill-opacity="1"></use></g><g><use xlink:href="#dORKs9DiV" opacity="1" fill="#6a3d2d" fill-opacity="1"></use></g><g><use xlink:href="#f2wcGTRjsL" opacity="1" fill="#6a3d2d" fill-opacity="1"></use></g><g><use xlink:href="#aCUaXZMwU" opacity="1" fill="#6a3d2d" fill-opacity="1"></use></g><g><use xlink:href="#aIPvPvOFn" opacity="1" fill="#6a3d2d" fill-opacity="1"></use></g><g><use xlink:href="#cNqwYOjwU" opacity="1" fill="#6a3d2d" fill-opacity="1"></use></g><g><use xlink:href="#aXNUEj6zA" opacity="1" fill="#6a3d2d" fill-opacity="1"></use></g><g><use xlink:href="#b5tQIu5bE" opacity="1" fill="#6a3d2d" fill-opacity="1"></use></g><g><use xlink:href="#cybUg8Xh" opacity="1" fill="#6a3d2d" fill-opacity="1"></use></g><g><use xlink:href="#a1RfbCBZi" opacity="1" fill="#6a3d2d" fill-opacity="1"></use></g><g><use xlink:href="#alqUf9rUa" opacity="1" fill="#6a3d2d" fill-opacity="1"></use></g><g><use xlink:href="#b2UmkICeTs" opacity="1" fill="#d9b954" fill-opacity="1"></use></g></g></g></svg>